:FULLY-SPECIFIED
:FORCE-ALL-JOINTS-BE-3DOF
:DEGREES
1427
root -2.03861 13.7029 12.7613 367.005 26.3524 366.499
lfemur 27.587 0.245239 -10.5796
ltibia 13.4497 0 0
lfoot -15.0015 34.5267 0
ltoes -25.9857 0 0
rfemur -66.4698 -21.5936 12.7656
rtibia 74.7039 0 0
rfoot -9.64996 11.0611 0
rtoes 5.60386 0 0
lowerback 10.1091 2.1275 -10.1668
upperback -3.25349 1.36246 -1.01321
thorax -9.47301 1.2238 4.37644
lowerneck 0.139966 -11.8717 -10.5828
upperneck 5.79416 -16.3407 10.0924
head 3.38338 -8.11756 4.00865
lclavicle 4.57047e-15 8.29057e-16 0
lhumerus -74.1791 -18.0159 104.285
lradius 101.003 0 0
lwrist 58.2568 0 0
lhand -8.75754 42.751 0
lfingers 7.12502 0 0
lthumb 17.1805 -287.977 0
rclavicle 4.57047e-15 8.29057e-16 0
rhumerus 63.6558 -14.4852 -28.2635
rradius 82.26 0 0
rwrist 27.2899 0 0
rhand -44.2419 -31.1968 0
rfingers 7.12502 0 0
rthumb -17.0551 -60.4922 0
1428
root -2.04541 13.7022 12.7565 366.994 26.4032 366.514
lfemur 27.4411 0.222131 -10.5584
ltibia 13.6869 0 0
lfoot -15.023 34.5319 0
ltoes -25.7782 0 0
rfemur -66.4492 -21.6134 12.7527
rtibia 74.6884 0 0
rfoot -9.62521 11.0497 0
rtoes 5.60175 0 0
lowerback 10.1123 2.11453 -10.1899
upperback -3.2662 1.3415 -1.00763
thorax -9.48679 1.21634 4.39919
lowerneck 0.126151 -11.8558 -10.5692
upperneck 5.81021 -16.317 10.055
head 3.38486 -8.10611 3.99643
lclavicle 4.90449e-15 1.69396e-15 0
lhumerus -74.1748 -18.0421 104.316
lradius 100.986 0 0
lwrist 58.2883 0 0
lhand -8.78794 42.648 0
lfingers 7.12502 0 0
lthumb 17.1512 -288.078 0
rclavicle 4.90449e-15 1.69396e-15 0
rhumerus 63.5994 -14.4461 -28.2277
rradius 82.2711 0 0
rwrist 27.2257 0 0
rhand -44.2009 -31.1901 0
rfingers 7.12502 0 0
rthumb -17.0156 -60.4876 0
1429
root -2.05272 13.7018 12.7506 366.981 26.4615 366.531
lfemur 27.2766 0.195747 -10.5357
ltibia 13.9526 0 0
lfoot -15.0491 34.5362 0
ltoes -25.5571 0 0
rfemur -66.4208 -21.6308 12.7348
rtibia 74.665 0 0
rfoot -9.59446 11.0309 0
rtoes 5.59028 0 0
lowerback 10.1179 2.10087 -10.2137
upperback -3.27905 1.31933 -1.00167
thorax -9.50198 1.20841 4.42285
lowerneck 0.111034 -11.8377 -10.5549
upperneck 5.82705 -16.2902 10.0144
head 3.38638 -8.09315 3.98332
lclavicle 5.28534e-15 2.58751e-15 0
lhumerus -74.1644 -18.0694 104.346
lradius 100.969 0 0
lwrist 58.3191 0 0
lhand -8.82427 42.54 0
lfingers 7.12502 0 0
lthumb 17.1161 -288.184 0
rclavicle 5.28534e-15 2.58751e-15 0
rhumerus 63.5367 -14.4008 -28.1877
rradius 82.2813 0 0
rwrist 27.1567 0 0
rhand -44.1532 -31.1832 0
rfingers 7.12502 0 0
rthumb -16.9696 -60.4829 0
1430
root -2.06056 13.7018 12.7438 366.966 26.5274 366.548
lfemur 27.0929 0.16597 -10.5116
ltibia 14.2477 0 0
lfoot -15.0802 34.5395 0
ltoes -25.3221 0 0
rfemur -66.3845 -21.6456 12.7117
rtibia 74.6333 0 0
rfoot -9.55752 11.0042 0
rtoes 5.56908 0 0
lowerback 10.126 2.0865 -10.238
upperback -3.292 1.29592 -0.995318
thorax -9.51861 1.2 4.44744
lowerneck 0.0945438 -11.8172 -10.5398
upperneck 5.84468 -16.2601 9.97042
head 3.38793 -8.0786 3.9693
lclavicle 5.71434e-15 3.50996e-15 0
lhumerus -74.1476 -18.0978 104.377
lradius 100.952 0 0
lwrist 58.349 0 0
lhand -8.86679 42.427 0
lfingers 7.12502 0 0
lthumb 17.0752 -288.295 0
rclavicle 5.71434e-15 3.50996e-15 0
rhumerus 63.4675 -14.349 -28.1433
rradius 82.2906 0 0
rwrist 27.0826 0 0
rhand -44.0987 -31.176 0
rfingers 7.12502 0 0
rthumb -16.917 -60.4782 0
1431
root -2.06894 13.7021 12.736 366.949 26.6013 366.566
lfemur 26.8893 0.132683 -10.486
ltibia 14.573 0 0
lfoot -15.1162 34.5416 0
ltoes -25.0729 0 0
rfemur -66.34 -21.6578 12.6832
rtibia 74.593 0 0
rfoot -9.51419 10.9694 0
rtoes 5.53781 0 0
lowerback 10.1368 2.07141 -10.2628
upperback -3.30506 1.27126 -0.988562
thorax -9.53673 1.1911 4.47295
lowerneck 0.0766087 -11.7944 -10.524
upperneck 5.86312 -16.2265 9.92304
head 3.38953 -8.0624 3.95432
lclavicle 6.19276e-15 4.46156e-15 0
lhumerus -74.1241 -18.1274 104.407
lradius 100.934 0 0
lwrist 58.3781 0 0
lhand -8.91576 42.3088 0
lfingers 7.12502 0 0
lthumb 17.028 -288.41 0
rclavicle 6.19276e-15 4.46156e-15 0
rhumerus 63.3915 -14.2905 -28.0945
rradius 82.2989 0 0
rwrist 27.0031 0 0
rhand -44.0368 -31.1685 0
rfingers 7.12502 0 0
rthumb -16.8574 -60.4735 0
1432
root -2.07789 13.7027 12.7271 366.93 26.6835 366.585
lfemur 26.6652 0.0957715 -10.4587
ltibia 14.9294 0 0
lfoot -15.1574 34.5426 0
ltoes -24.8093 0 0
rfemur -66.2871 -21.6671 12.6491
rtibia 74.544 0 0
rfoot -9.46426 10.9261 0
rtoes 5.49612 0 0
lowerback 10.1505 2.05558 -10.2882
upperback -3.31819 1.24532 -0.981392
thorax -9.55641 1.18169 4.49939
lowerneck 0.0571571 -11.769 -10.5073
upperneck 5.88238 -16.1893 9.87207
head 3.39116 -8.04447 3.93836
lclavicle 6.72191e-15 5.44257e-15 0
lhumerus -74.0935 -18.1582 104.436
lradius 100.916 0 0
lwrist 58.4062 0 0
lhand -8.97144 42.1855 0
lfingers 7.12502 0 0
lthumb 16.9743 -288.53 0
rclavicle 6.72191e-15 5.44257e-15 0
rhumerus 63.3085 -14.2249 -28.0411
rradius 82.3062 0 0
rwrist 26.9182 0 0
rhand -43.9674 -31.1607 0
rfingers 7.12502 0 0
rthumb -16.7905 -60.4687 0
1433
root -2.08742 13.7037 12.7172 366.908 26.7743 366.606
lfemur 26.42 0.0551179 -10.4297
ltibia 15.3179 0 0
lfoot -15.2039 34.5423 0
ltoes -24.5309 0 0
rfemur -66.2254 -21.6735 12.6093
rtibia 74.486 0 0
rfoot -9.40754 10.874 0
rtoes 5.44366 0 0
lowerback 10.167 2.03901 -10.3141
upperback -3.3314 1.21808 -0.973799
thorax -9.57768 1.17177 4.52676
lowerneck 0.0361176 -11.7411 -10.4898
upperneck 5.90247 -16.1483 9.8174
head 3.39283 -8.02474 3.92138
lclavicle 7.30307e-15 6.45325e-15 0
lhumerus -74.0556 -18.1903 104.465
lradius 100.897 0 0
lwrist 58.4332 0 0
lhand -9.03409 42.0568 0
lfingers 7.12502 0 0
lthumb 16.9139 -288.655 0
rclavicle 7.30307e-15 6.45325e-15 0
rhumerus 63.2182 -14.1519 -27.9829
rradius 82.3123 0 0
rwrist 26.8276 0 0
rhand -43.8901 -31.1526 0
rfingers 7.12502 0 0
rthumb -16.7159 -60.4639 0
1434
root -2.09756 13.7051 12.7062 366.884 26.8738 366.627
lfemur 26.153 0.0106062 -10.399
ltibia 15.7393 0 0
lfoot -15.2559 34.5407 0
ltoes -24.2376 0 0
rfemur -66.1548 -21.6768 12.5635
rtibia 74.4186 0 0
rfoot -9.34384 10.8125 0
rtoes 5.38007 0 0
lowerback 10.1866 2.02167 -10.3405
upperback -3.34466 1.1895 -0.965772
thorax -9.6006 1.16132 4.55506
lowerneck 0.0134187 -11.7103 -10.4714
upperneck 5.9234 -16.1035 9.75889
head 3.39454 -8.00313 3.90334
lclavicle 7.93755e-15 7.49386e-15 0
lhumerus -74.0098 -18.2236 104.493
lradius 100.877 0 0
lwrist 58.459 0 0
lhand -9.10397 41.9227 0
lfingers 7.12502 0 0
lthumb 16.8466 -288.785 0
rclavicle 7.93755e-15 7.49386e-15 0
rhumerus 63.1204 -14.0713 -27.9198
rradius 82.3173 0 0
rwrist 26.731 0 0
rhand -43.8046 -31.144 0
rfingers 7.12502 0 0
rthumb -16.6334 -60.459 0
1435
root -2.10832 13.7069 12.6941 366.858 26.9825 366.65
lfemur 25.8636 -0.0378797 -10.3665
ltibia 16.1945 0 0
lfoot -15.3134 34.5378 0
ltoes -23.9289 0 0
rfemur -66.075 -21.677 12.5116
rtibia 74.3416 0 0
rfoot -9.27294 10.7415 0
rtoes 5.30501 0 0
lowerback 10.2093 2.00356 -10.3673
upperback -3.35796 1.15956 -0.9573
thorax -9.62521 1.15033 4.58429
lowerneck -0.0110112 -11.6768 -10.452
upperneck 5.94518 -16.0545 9.69643
head 3.39627 -7.97957 3.88421
lclavicle 8.62663e-15 8.56466e-15 0
lhumerus -73.9559 -18.2583 104.52
lradius 100.858 0 0
lwrist 58.4836 0 0
lhand -9.18135 41.7831 0
lfingers 7.12502 0 0
lthumb 16.772 -288.92 0
rclavicle 8.62663e-15 8.56466e-15 0
rhumerus 63.0149 -13.9827 -27.8517
rradius 82.3211 0 0
rwrist 26.6282 0 0
rhand -43.7105 -31.1351 0
rfingers 7.12502 0 0
rthumb -16.5427 -60.454 0
1436
root -2.11972 13.7091 12.6808 366.829 27.1005 366.674
lfemur 25.5512 -0.0904563 -10.3322
ltibia 16.6844 0 0
lfoot -15.3767 34.5334 0
ltoes -23.6046 0 0
rfemur -65.9857 -21.6738 12.4534
rtibia 74.2547 0 0
rfoot -9.19466 10.6606 0
rtoes 5.21813 0 0
lowerback 10.2353 1.98466 -10.3946
upperback -3.37128 1.12825 -0.948374
thorax -9.65157 1.13879 4.61446
lowerneck -0.0372435 -11.6403 -10.4317
upperneck 5.96783 -16.0014 9.62987
head 3.39804 -7.95398 3.86395
lclavicle 9.37161e-15 9.6659e-15 0
lhumerus -73.8935 -18.2944 104.547
lradius 100.837 0 0
lwrist 58.5067 0 0
lhand -9.26649 41.6378 0
lfingers 7.12502 0 0
lthumb 16.6899 -289.06 0
rclavicle 9.37161e-15 9.6659e-15 0
rhumerus 62.9014 -13.886 -27.7784
rradius 82.3235 0 0
rwrist 26.519 0 0
rhand -43.6076 -31.1257 0
rfingers 7.12502 0 0
rthumb -16.4434 -60.4488 0
1437
root -2.1254 13.7086 12.6807 366.84 27.142 366.675
lfemur 25.4877 -0.104957 -10.3031
ltibia 16.7222 0 0
lfoot -15.3621 34.5162 0
ltoes -23.6063 0 0
rfemur -66.011 -21.6693 12.4539
rtibia 74.2727 0 0
rfoot -9.19944 10.5889 0
rtoes 5.23319 0 0
lowerback 10.2616 1.98302 -10.3816
upperback -3.36691 1.12622 -0.946897
thorax -9.66109 1.13728 4.60854
lowerneck -0.0699307 -11.6077 -10.4114
upperneck 5.96718 -15.9532 9.59137
head 3.39669 -7.93019 3.85185
lclavicle 9.24284e-15 9.79951e-15 0
lhumerus -73.7968 -18.3213 104.534
lradius 100.82 0 0
lwrist 58.4778 0 0
lhand -9.324 41.6135 0
lfingers 7.12502 0 0
lthumb 16.6344 -289.082 0
rclavicle 9.24284e-15 9.79951e-15 0
rhumerus 62.8516 -13.8105 -27.7606
rradius 82.3048 0 0
rwrist 26.4294 0 0
rhand -43.515 -31.1012 0
rfingers 7.12502 0 0
rthumb -16.354 -60.4276 0
1438
root -2.13131 13.7079 12.6793 366.822 27.1928 366.646
lfemur 25.4264 -0.123441 -10.2675
ltibia 16.7523 0 0
lfoot -15.347 34.4976 0
ltoes -23.6163 0 0
rfemur -66.0412 -21.6648 12.452
rtibia 74.2916 0 0
rfoot -9.20177 10.5049 0
rtoes 5.25059 0 0
lowerback 10.2917 1.98188 -10.3675
upperback -3.36126 1.12448 -0.946016
thorax -9.67145 1.1358 4.60121
lowerneck -0.107148 -11.5732 -10.3908
upperneck 5.96597 -15.9019 9.55096
head 3.39513 -7.90483 3.8394
lclavicle 9.0989e-15 9.906e-15 0
lhumerus -73.705 -18.3428 104.529
lradius 100.797 0 0
lwrist 58.4477 0 0
lhand -9.3898 41.5903 0
lfingers 7.12502 0 0
lthumb 16.571 -289.102 0
rclavicle 9.0989e-15 9.906e-15 0
rhumerus 62.8107 -13.7326 -27.7322
rradius 82.2772 0 0
rwrist 26.3382 0 0
rhand -43.4144 -31.0726 0
rfingers 7.12502 0 0
rthumb -16.2569 -60.4031 0
